<svg width="35" height="50" viewBox="0 0 35 50" fill="none" xmlns="http://www.w3.org/2000/svg">
<path d="M0 50C0.851495 41.589 1.93715 33.1997 3.24987 24.8536C3.86721 20.9367 4.5626 16.9476 6.45717 13.4779C7.31577 11.9054 8.53624 10.3761 10.2392 9.90003C12.4318 9.28688 14.7876 10.6574 16.0507 12.5762C17.3137 14.495 17.7324 16.8539 18.073 19.1334C19.5205 28.684 20.3365 38.343 20.5068 48.0091C18.7897 42.2671 16.59 36.2222 11.8145 32.6876C9.75672 31.1655 6.93969 30.2133 4.67613 31.4035C2.41257 32.5938 1.92296 36.5972 4.27877 37.5926C5.21541 37.9894 6.28687 37.8162 7.27319 37.5782C18.2788 34.8875 26.595 23.5769 26.0132 12.0785C27.3543 23.9303 29.185 35.7244 31.5124 47.4175C29.0999 39.461 26.6944 31.5044 24.2818 23.5479C22.6285 18.1017 20.9681 12.2949 22.4298 6.78375C23.5368 2.61434 27.851 -1.37475 31.6898 0.457484C33.8044 1.46738 34.9326 3.94891 34.9965 6.32216C35.0603 8.6954 34.2514 10.9893 33.3928 13.1967C27.3498 29.7317 19.0572 36.1852 19.0572 36.1852" fill="#0A1719"/>
</svg>
